<svg xmlns="http://www.w3.org/2000/svg" viewBox="0 0 24 24" width="32" height="32" role="img" aria-label="GitHub">
  <title>GitHub</title>
  <path fill="currentColor" d="M12 .297c-6.63 0-12 5.373-12 12 0 5.303 3.438 9.8 8.205 11.387.6.113.82-.26.82-.577 0-.285-.01-1.04-.015-2.04-3.338.724-4.042-1.61-4.042-1.61-.546-1.387-1.333-1.757-1.333-1.757-1.09-.745.083-.73.083-.73 1.205.085 1.84 1.236 1.84 1.236 1.07 1.835 2.809 1.305 3.495.998.108-.776.418-1.305.762-1.605-2.665-.305-5.466-1.333-5.466-5.93 0-1.31.468-2.38 1.235-3.22-.123-.303-.535-1.524.117-3.176 0 0 1.008-.322 3.3 1.23A11.52 11.52 0 0 1 12 6.845c1.02.005 2.045.138 3.003.405 2.29-1.552 3.296-1.23 3.296-1.23.654 1.653.243 2.874.12 3.176.77.84 1.233 1.91 1.233 3.22 0 4.61-2.805 5.62-5.475 5.92.43.372.815 1.103.815 2.222 0 1.604-.015 2.896-.015 3.286 0 .32.216.694.825.576C20.565 22.092 24 17.595 24 12.297 24 5.67 18.627.297 12 .297z"/>
</svg>
